# xmcd CD database file
#
# Track frame offsets:
#	150
#	12793
#	24906
#	36675
#	46445
#	57253
#	68976
#	80398
#	93108
#	104455
#	115591
#	128422
#	141000
#	153274
#	162138
#	174181
#	186037
#	199278
#	209739
#	222548
#	235064
#	245718
#	257533
#	269352
#
# Disc length: 3770 seconds
#
# Revision: 0
# Processed by: cddbd v1.5.2PL0 Copyright (c) Steve Scherf et al.
# Submitted via: CDex 1.70beta2
#
DISCID=4c0eb818
DTITLE=Marty Robbins - Sing me something sentimental
DYEAR=2006
DGENRE=Country
TTITLE0=I couldn't keep from crying
TTITLE1=I'll go on alone
TTITLE2=Pretty Words
TTITLE3=Call me up
TTITLE4=Time goes by
TTITLE5=That's all right
TTITLE6=Maybellene
TTITLE7=Sing me something sentimental
TTITLE8=Long gone lonesome blues
TTITLE9=At the end on a long, lonely day
TTITLE10=Blessed Jesus, should I fall don't let me lay
TTITLE11=Kneel and let the lord take your load
TTITLE12=Don't make me ashamed
TTITLE13=It's a long, long ride
TTITLE14=My isle of golden dreams
TTITLE15=Have thine own way, lord
TTITLE16=God understands
TTITLE17=Aloha Oe
TTITLE18=I'm to big to cry
TTITLE19=Tomorrow you'll be gone
TTITLE20=It's a pity what money can do
TTITLE21=It looks like I'm just in your way
TTITLE22=Cying 'cause I love you
TTITLE23=A castle in the sky
EXTD=YEAR: 2006
EXTT0=
EXTT1=
EXTT2=
EXTT3=
EXTT4=
EXTT5=
EXTT6=
EXTT7=
EXTT8=
EXTT9=
EXTT10=
EXTT11=
EXTT12=
EXTT13=
EXTT14=
EXTT15=
EXTT16=
EXTT17=
EXTT18=
EXTT19=
EXTT20=
EXTT21=
EXTT22=
EXTT23=
PLAYORDER=
